<svg xmlns="http://www.w3.org/2000/svg" width="40" height="38.285" viewBox="0 0 40 38.285">
  <defs>
    <style>
      .cls-1 {
        fill: #d16c35;
      }
    </style>
  </defs>
  <path id="Icon_awesome-star" data-name="Icon awesome-star" class="cls-1" d="M19.3,1.331l-4.882,9.9L3.49,12.822A2.394,2.394,0,0,0,2.167,16.9l7.9,7.7L8.2,35.484A2.391,2.391,0,0,0,11.669,38l9.772-5.136L31.213,38a2.393,2.393,0,0,0,3.469-2.52L32.813,24.606l7.9-7.7a2.394,2.394,0,0,0-1.323-4.082L28.469,11.23l-4.882-9.9a2.4,2.4,0,0,0-4.292,0Z" transform="translate(-1.441 0.001)"/>
</svg>
